PathFileType	4	(X/Y/Z)	C:\Github\BTS_project\Data\sports2d_results\Single_Hop4 Exam_2026-03-06_123833_tvc2_Sports2D\Single_Hop4 Exam_2026-03-06_123833_tvc2_Sports2D_m_person00.trc
DataRate	CameraRate	NumFrames	NumMarkers	Units	OrigDataRate	OrigDataStartFrame	OrigNumFrames
30.0	30.0	9	22	m	30.0	173	278
Frame#	Time	Hip			RHip			RKnee			RAnkle			RBigToe			RSmallToe			RHeel			LHip			LKnee			LAnkle			LBigToe			LSmallToe			LHeel			Neck			Head			Nose			RShoulder			RElbow			RWrist			LShoulder			LElbow			LWrist			
		X1	Y1	Z1	X2	Y2	Z2	X3	Y3	Z3	X4	Y4	Z4	X5	Y5	Z5	X6	Y6	Z6	X7	Y7	Z7	X8	Y8	Z8	X9	Y9	Z9	X10	Y10	Z10	X11	Y11	Z11	X12	Y12	Z12	X13	Y13	Z13	X14	Y14	Z14	X15	Y15	Z15	X16	Y16	Z16	X17	Y17	Z17	X18	Y18	Z18	X19	Y19	Z19	X20	Y20	Z20	X21	Y21	Z21	X22	Y22	Z22
173	5.787484957882071	1.3873479922099972	0.6501746131675825	0.0301	1.2723831049032348	0.5749555611716646	0.0301	1.506731774150976	0.21107075840500908	0.129	1.6102992125272573	0.23037720618545507	0.023	1.6969265905968338	0.09662352304832189	0.2179	1.6282607062689436	0.07706856083154427	0.1804	1.6274170744508747	0.2766001066646363	-0.0119	1.494421723930746	0.7150570897601813	0.0301	1.7408599931410271	0.3772015201495124	0.129	1.9902171548953447	-0.004426758186216709	0.023	2.0504178233495574	-0.125097848162248	0.2179	2.1057685582723495	-0.07062083345136061	0.1804	2.003215701175466	-0.0440147603728645	-0.0119	1.1187361402128602	1.1193325983687354	0.0008	0.9740923891871723	1.3964391278102226	0.0655	1.1101517598036221	1.2013578871236252	0.1076	0.9149117157728649	0.969558947760842	-0.01275	0.8252201074406355	0.7379755542699297	0.0702	1.0656036961015702	0.6045155575419918	0.1076	1.3248439381691186	1.2505835984988454	-0.01275	1.5788990087346044	1.2338029249990536	0.0702	1.5386789145696007	0.9529261338686967	0.1076
174	5.820938628158846	1.391573736197143	0.6488934260088396	0.0301	1.2761136184615716	0.574642840865757	0.0301	1.5118993743746603	0.2203533697603142	0.129	1.636494354028261	0.20679166394780596	0.023	1.7177061675051375	0.07167916189665839	0.2179	1.645319849459165	0.05335818383792471	0.1804	1.6556861192148584	0.24255189117944337	-0.0119	1.4948353512392785	0.7178841366127426	0.0301	1.7313983293887618	0.38795097411236357	0.129	1.9854763917479397	0.0054879264905855945	0.023	2.0444313695154306	-0.12474878544264058	0.2179	2.1011291575590665	-0.07091281567159916	0.1804	1.9944172609850697	-0.032910518793069464	-0.0119	1.1420340587559983	1.088284533999762	0.0008	1.0007390855585205	1.3671089518324009	0.0655	1.141415155746465	1.1674210393740025	0.1076	0.9361517879509973	0.9453962426930939	-0.01275	0.8324223954108194	0.718377481798663	0.0702	1.076793799255342	0.5933256521438315	0.1076	1.3447038194110357	1.2267579733885923	-0.01275	1.5933715137040012	1.2215338557834343	0.0702	1.5400137470887274	0.9381062698362111	0.1076
175	5.854392298435621	1.393016041282083	0.6485969928191273	0.0301	1.2802393124044416	0.5730897890999544	0.0301	1.514592866520228	0.22272887958531892	0.129	1.6526463148570016	0.19675009057752343	0.023	1.7323477578105608	0.06115867167704512	0.2179	1.6616392708997652	0.045225282388878615	0.1804	1.6766336825424268	0.22630484623945546	-0.0119	1.4947808369614395	0.7194571918892134	0.0301	1.7324327472179357	0.3891350098966926	0.129	1.982485358695849	0.014043676865823114	0.023	2.043061396988678	-0.12307005351905319	0.2179	2.097880843516075	-0.0682266694299971	0.1804	1.9902977414271266	-0.02623707967242955	-0.0119	1.159885756683367	1.0666997230617232	0.0008	1.0227007486270319	1.346509855605779	0.0655	1.1664865548557184	1.1398292398079772	0.1076	0.9511831578811925	0.9267213665502022	-0.01275	0.8384149297094555	0.7026617128074364	0.0702	1.085022768549799	0.5855721048708408	0.1076	1.35911097414887	1.211985921480358	-0.01275	1.6012711009252667	1.2156526704167907	0.0702	1.5426612763104441	0.9321183937175191	0.1076
176	5.887845968712396	1.3974646858154842	0.6443424457937259	0.0301	1.2853528458144143	0.5681370725948729	0.0301	1.5167185097784843	0.21591493070065185	0.129	1.6617402931946152	0.19467183728370688	0.023	1.7431490266808312	0.055731519994728806	0.2179	1.6762415066687975	0.04234261797839213	0.1804	1.6896178540956697	0.22349154327880064	-0.0119	1.4992572692694872	0.7158830340559926	0.0301	1.7429216627216229	0.3849197244593431	0.129	1.9819573251273843	0.01920304379704022	0.023	2.0402918126465996	-0.11721734100810319	0.2179	2.0923240290024996	-0.06278405920032055	0.1804	1.9896540176262987	-0.02061892279312787	-0.0119	1.1774025828010857	1.048210706778694	0.0008	1.0425814000022788	1.3353338567649837	0.0655	1.1869086260040802	1.1194736887254642	0.1076	0.9639786376811623	0.9142941442700002	-0.01275	0.8450008909617012	0.6916366374839111	0.0702	1.090466098757969	0.5793383544008484	0.1076	1.3691065654533232	1.2015158884227002	-0.01275	1.603906026039908	1.2089363154144352	0.0702	1.5455814929031246	0.9294567815284375	0.1076
177	5.92129963898917	1.4045544394679703	0.6373219855458653	0.0301	1.292410250053011	0.5609138350583761	0.0301	1.5163686545838064	0.20525301485341899	0.129	1.6671510877386002	0.19519231163452225	0.023	1.75053305266976	0.055755492158106615	0.2179	1.6868749748693195	0.04313699740087646	0.1804	1.6952619553303532	0.2252055346150335	-0.0119	1.5075467917637517	0.7080927113285305	0.0301	1.7542557080629455	0.38190156951966714	0.129	1.9842946609794037	0.021899832992930936	0.023	2.033903771275219	-0.11274018635694955	0.2179	2.086383884156271	-0.05998936519850261	0.1804	1.99136938225407	-0.011895457274681491	-0.0119	1.189771133653284	1.037721653896005	0.0008	1.0606222077421095	1.3264747036816253	0.0655	1.2039396791559898	1.1049751449947198	0.1076	0.9755418213796129	0.9076282739012302	-0.01275	0.8495959845474254	0.6865280302274018	0.0702	1.094820687176007	0.5739461900812125	0.1076	1.3771143557714507	1.1928305182735652	-0.01275	1.6028887284798599	1.2002636708879793	0.0702	1.5483277135793898	0.9259584716725917	0.1076
178	5.9547533092659455	1.4108308361396615	0.6309023795459286	0.0301	1.3000770006727256	0.5541269820838867	0.0301	1.516362027390896	0.19467773828106294	0.129	1.6685604677430164	0.19651806357012352	0.023	1.7537471630810813	0.06053065932518861	0.2179	1.692120927706493	0.047121659592021234	0.1804	1.6954262668950226	0.22886362132382918	-0.0119	1.5152345346155973	0.7004762338048373	0.0301	1.7595115119523157	0.38094302482439657	0.129	1.9875702374003947	0.024645464766281686	0.023	2.0280475907750053	-0.11424754532765276	0.2179	2.0831783794146514	-0.060011114498153745	0.1804	1.9963406549129707	-0.00406269021749769	-0.0119	1.1969788737260751	1.0340541560811833	0.0008	1.0726113332048404	1.3188403611930712	0.0655	1.2158329617169137	1.0950608579614514	0.1076	0.9863092822016531	0.9020200741762632	-0.01275	0.8524725226387306	0.683892126431703	0.0702	1.1015937958104216	0.5677301318686714	0.1076	1.3877755711633826	1.1856164690768933	-0.01275	1.6020345656252784	1.193032321437473	0.0702	1.5523386086374962	0.919914043309215	0.1076
179	5.988206979542721	1.4156231532733066	0.6257640377565581	0.0301	1.3050719602402565	0.5489788144468462	0.0301	1.5206414048054506	0.1856573114799045	0.129	1.6648511988541013	0.19894228575967907	0.023	1.7536098641389883	0.06633526863417355	0.2179	1.6921457331958967	0.05145750473922159	0.1804	1.6906251948558682	0.2354267200455735	-0.0119	1.5197835621377314	0.6959004361201946	0.0301	1.7592323899133528	0.37990463550356246	0.129	1.9902378429807037	0.027089318914397198	0.023	2.025643153660781	-0.11752679718862451	0.2179	2.0816694621039513	-0.058408401026298254	0.1804	2.0029680781980956	-0.003085387998636435	-0.0119	1.206912146337189	1.0261448901785812	0.0008	1.0784591255707132	1.3164456744696755	0.0655	1.221753040252751	1.0886516737598781	0.1076	0.9963650598886176	0.8952668513456918	-0.01275	0.8566153453238926	0.6783567034087452	0.0702	1.110959655841434	0.5610643801337902	0.1076	1.4018885166305575	1.180506071944351	-0.01275	1.6048390889973048	1.189100848605917	0.0702	1.559313726579796	0.9106669249486326	0.1076
180	6.021660649819496	1.4205014380173877	0.6201043154906186	0.0301	1.3071942705725914	0.5444160365358106	0.0301	1.5291226760032532	0.1799129029890035	0.129	1.6573535809568356	0.20269293166847852	0.023	1.750685582246575	0.07461808636775494	0.2179	1.6879756805840027	0.05641765997021713	0.1804	1.6805571966661308	0.24294550468000944	-0.0119	1.5229606501541084	0.6924618367112085	0.0301	1.758622357974559	0.37702079221769785	0.129	1.9927566706667423	0.026382001059176423	0.023	2.0247602212585685	-0.11677466963764646	0.2179	2.080089845316521	-0.055175100418639225	0.1804	2.0057951716069753	-0.007260463078755783	-0.0119	1.2202694815737478	1.0124565123452292	0.0008	1.0838443781224472	1.315773674184729	0.0655	1.2254095539344612	1.0836580720679074	0.1076	1.0042929379191905	0.8893209946836806	-0.01275	0.8618880397379541	0.6700718647947828	0.0702	1.1175797346381717	0.5558509396117618	0.1076	1.4146387034919539	1.1759685089071827	-0.01275	1.6121834129799597	1.1855688359788212	0.0702	1.5688619266276487	0.899847865938573	0.1076
181	6.055114320096271	1.4264191666913437	0.6130450661191044	0.0301	1.3095237344673443	0.539613891536508	0.0301	1.5397294858196975	0.17662824592350207	0.129	1.649179878164119	0.2071705076742492	0.023	1.7450785605909267	0.08742326606919915	0.2179	1.6807599371496922	0.06406271112387657	0.1804	1.6684687785711125	0.2496507213365575	-0.0119	1.5277278874097526	0.6875655256695586	0.0301	1.7613726528628224	0.37144048083572767	0.129	1.9953591544424694	0.020985905414843502	0.023	2.0245129280212955	-0.11476572878598729	0.2179	2.0802708398230827	-0.05502736090821564	0.1804	2.0030544143133597	-0.012251829804451247	-0.0119	1.2307679773058329	1.000012918351283	0.0008	1.0919621766762293	1.3105596197426295	0.0655	1.2312960111262108	1.0781272873458754	0.1076	1.009453098632891	0.8855508494781832	-0.01275	0.8658628911263689	0.6645033206553937	0.0702	1.1178051142917662	0.5520551335928334	0.1076	1.421973517774922	1.170113587661509	-0.01275	1.622028988259643	1.1798259998794782	0.0702	1.5782675273708722	0.8914155892368004	0.1076
